<mxfile host="Electron" modified="2024-05-09T19:56:59.407Z" agent="Mozilla/5.0 (Windows NT 10.0; Win64; x64) AppleWebKit/537.36 (KHTML, like Gecko) draw.io/24.2.5 Chrome/120.0.6099.109 Electron/28.1.0 Safari/537.36" etag="RcXLeZt4SHSvlfp4h9ni" version="24.2.5" type="device">
  <diagram name="FRDL-FuncArch" id="bn2PXIH9sF4sWWGo1fHl">
    <mxGraphModel dx="2313" dy="941" grid="1" gridSize="10" guides="1" tooltips="1" connect="1" arrows="1" fold="1" page="1" pageScale="1" pageWidth="850" pageHeight="1100" math="0" shadow="0">
      <root>
        <mxCell id="0" />
        <mxCell id="1" parent="0" />
        <mxCell id="1CWe-sbZiBjtFl2tvP84-12" style="edgeStyle=orthogonalEdgeStyle;rounded=0;orthogonalLoop=1;jettySize=auto;html=1;exitX=1;exitY=0.5;exitDx=0;exitDy=0;endArrow=diamondThin;endFill=0;entryX=0.5;entryY=1;entryDx=0;entryDy=0;" edge="1" parent="1" source="1CWe-sbZiBjtFl2tvP84-1" target="1CWe-sbZiBjtFl2tvP84-5">
          <mxGeometry relative="1" as="geometry" />
        </mxCell>
        <mxCell id="1CWe-sbZiBjtFl2tvP84-13" value="uses" style="edgeLabel;html=1;align=center;verticalAlign=middle;resizable=0;points=[];" vertex="1" connectable="0" parent="1CWe-sbZiBjtFl2tvP84-12">
          <mxGeometry x="-0.1104" y="2" relative="1" as="geometry">
            <mxPoint as="offset" />
          </mxGeometry>
        </mxCell>
        <mxCell id="1CWe-sbZiBjtFl2tvP84-1" value="hazard" style="ellipse;whiteSpace=wrap;html=1;aspect=fixed;" vertex="1" parent="1">
          <mxGeometry x="220" y="520" width="80" height="80" as="geometry" />
        </mxCell>
        <mxCell id="1CWe-sbZiBjtFl2tvP84-2" value="outcome" style="ellipse;whiteSpace=wrap;html=1;aspect=fixed;" vertex="1" parent="1">
          <mxGeometry x="70" y="460" width="80" height="80" as="geometry" />
        </mxCell>
        <mxCell id="1CWe-sbZiBjtFl2tvP84-6" style="edgeStyle=orthogonalEdgeStyle;rounded=0;orthogonalLoop=1;jettySize=auto;html=1;exitX=1;exitY=0.5;exitDx=0;exitDy=0;endArrow=open;endFill=0;dashed=1;" edge="1" parent="1" source="1CWe-sbZiBjtFl2tvP84-3" target="1CWe-sbZiBjtFl2tvP84-4">
          <mxGeometry relative="1" as="geometry" />
        </mxCell>
        <mxCell id="1CWe-sbZiBjtFl2tvP84-7" value="perceived" style="edgeLabel;html=1;align=center;verticalAlign=middle;resizable=0;points=[];" vertex="1" connectable="0" parent="1CWe-sbZiBjtFl2tvP84-6">
          <mxGeometry x="0.0185" y="-3" relative="1" as="geometry">
            <mxPoint as="offset" />
          </mxGeometry>
        </mxCell>
        <mxCell id="1CWe-sbZiBjtFl2tvP84-16" style="edgeStyle=orthogonalEdgeStyle;rounded=0;orthogonalLoop=1;jettySize=auto;html=1;exitX=0.75;exitY=1;exitDx=0;exitDy=0;entryX=0;entryY=0.5;entryDx=0;entryDy=0;endArrow=none;endFill=0;startArrow=diamondThin;startFill=0;" edge="1" parent="1" source="1CWe-sbZiBjtFl2tvP84-3" target="1CWe-sbZiBjtFl2tvP84-1">
          <mxGeometry relative="1" as="geometry" />
        </mxCell>
        <mxCell id="1CWe-sbZiBjtFl2tvP84-17" value="perceives" style="edgeLabel;html=1;align=center;verticalAlign=middle;resizable=0;points=[];" vertex="1" connectable="0" parent="1CWe-sbZiBjtFl2tvP84-16">
          <mxGeometry x="-0.4667" y="-2" relative="1" as="geometry">
            <mxPoint y="-2" as="offset" />
          </mxGeometry>
        </mxCell>
        <mxCell id="1CWe-sbZiBjtFl2tvP84-18" style="edgeStyle=orthogonalEdgeStyle;rounded=0;orthogonalLoop=1;jettySize=auto;html=1;exitX=0.25;exitY=1;exitDx=0;exitDy=0;startArrow=diamondThin;startFill=0;endArrow=none;endFill=0;" edge="1" parent="1" source="1CWe-sbZiBjtFl2tvP84-3" target="1CWe-sbZiBjtFl2tvP84-2">
          <mxGeometry relative="1" as="geometry" />
        </mxCell>
        <mxCell id="1CWe-sbZiBjtFl2tvP84-19" value="updates" style="edgeLabel;html=1;align=center;verticalAlign=middle;resizable=0;points=[];" vertex="1" connectable="0" parent="1CWe-sbZiBjtFl2tvP84-18">
          <mxGeometry x="-0.4941" y="-2" relative="1" as="geometry">
            <mxPoint x="2" y="10" as="offset" />
          </mxGeometry>
        </mxCell>
        <mxCell id="1CWe-sbZiBjtFl2tvP84-3" value="perceive" style="rounded=1;whiteSpace=wrap;html=1;" vertex="1" parent="1">
          <mxGeometry x="80" y="320" width="120" height="60" as="geometry" />
        </mxCell>
        <mxCell id="1CWe-sbZiBjtFl2tvP84-8" style="edgeStyle=orthogonalEdgeStyle;rounded=0;orthogonalLoop=1;jettySize=auto;html=1;exitX=1;exitY=0.5;exitDx=0;exitDy=0;entryX=0.5;entryY=0;entryDx=0;entryDy=0;dashed=1;endArrow=open;endFill=0;" edge="1" parent="1" source="1CWe-sbZiBjtFl2tvP84-4" target="1CWe-sbZiBjtFl2tvP84-5">
          <mxGeometry relative="1" as="geometry" />
        </mxCell>
        <mxCell id="1CWe-sbZiBjtFl2tvP84-9" value="acted" style="edgeLabel;html=1;align=center;verticalAlign=middle;resizable=0;points=[];" vertex="1" connectable="0" parent="1CWe-sbZiBjtFl2tvP84-8">
          <mxGeometry x="0.037" y="1" relative="1" as="geometry">
            <mxPoint as="offset" />
          </mxGeometry>
        </mxCell>
        <mxCell id="1CWe-sbZiBjtFl2tvP84-14" style="edgeStyle=orthogonalEdgeStyle;rounded=0;orthogonalLoop=1;jettySize=auto;html=1;exitX=0.5;exitY=1;exitDx=0;exitDy=0;entryX=0.5;entryY=0;entryDx=0;entryDy=0;endArrow=none;endFill=0;startArrow=diamondThin;startFill=0;" edge="1" parent="1" source="1CWe-sbZiBjtFl2tvP84-4" target="1CWe-sbZiBjtFl2tvP84-1">
          <mxGeometry relative="1" as="geometry" />
        </mxCell>
        <mxCell id="1CWe-sbZiBjtFl2tvP84-15" value="mitigates" style="edgeLabel;html=1;align=center;verticalAlign=middle;resizable=0;points=[];" vertex="1" connectable="0" parent="1CWe-sbZiBjtFl2tvP84-14">
          <mxGeometry x="0.1042" y="-1" relative="1" as="geometry">
            <mxPoint as="offset" />
          </mxGeometry>
        </mxCell>
        <mxCell id="1CWe-sbZiBjtFl2tvP84-20" style="edgeStyle=orthogonalEdgeStyle;rounded=0;orthogonalLoop=1;jettySize=auto;html=1;exitX=0.25;exitY=1;exitDx=0;exitDy=0;entryX=1;entryY=0.5;entryDx=0;entryDy=0;endArrow=none;endFill=0;startArrow=diamondThin;startFill=0;jumpStyle=arc;" edge="1" parent="1" source="1CWe-sbZiBjtFl2tvP84-4" target="1CWe-sbZiBjtFl2tvP84-2">
          <mxGeometry relative="1" as="geometry" />
        </mxCell>
        <mxCell id="1CWe-sbZiBjtFl2tvP84-21" value="updates" style="edgeLabel;html=1;align=center;verticalAlign=middle;resizable=0;points=[];" vertex="1" connectable="0" parent="1CWe-sbZiBjtFl2tvP84-20">
          <mxGeometry x="0.1548" y="-3" relative="1" as="geometry">
            <mxPoint x="-9" y="3" as="offset" />
          </mxGeometry>
        </mxCell>
        <mxCell id="1CWe-sbZiBjtFl2tvP84-4" value="act" style="rounded=1;whiteSpace=wrap;html=1;" vertex="1" parent="1">
          <mxGeometry x="200" y="380" width="120" height="60" as="geometry" />
        </mxCell>
        <mxCell id="1CWe-sbZiBjtFl2tvP84-10" style="edgeStyle=orthogonalEdgeStyle;rounded=0;orthogonalLoop=1;jettySize=auto;html=1;exitX=0.75;exitY=0;exitDx=0;exitDy=0;entryX=1;entryY=0.25;entryDx=0;entryDy=0;dashed=1;endArrow=open;endFill=0;" edge="1" parent="1" source="1CWe-sbZiBjtFl2tvP84-5" target="1CWe-sbZiBjtFl2tvP84-3">
          <mxGeometry relative="1" as="geometry" />
        </mxCell>
        <mxCell id="1CWe-sbZiBjtFl2tvP84-11" value="ready" style="edgeLabel;html=1;align=center;verticalAlign=middle;resizable=0;points=[];" vertex="1" connectable="0" parent="1CWe-sbZiBjtFl2tvP84-10">
          <mxGeometry x="-0.037" y="4" relative="1" as="geometry">
            <mxPoint y="1" as="offset" />
          </mxGeometry>
        </mxCell>
        <mxCell id="1CWe-sbZiBjtFl2tvP84-5" value="done" style="rounded=1;whiteSpace=wrap;html=1;" vertex="1" parent="1">
          <mxGeometry x="320" y="440" width="120" height="60" as="geometry" />
        </mxCell>
        <mxCell id="1CWe-sbZiBjtFl2tvP84-22" value="" style="group" vertex="1" connectable="0" parent="1">
          <mxGeometry x="80" y="320" width="20" height="20" as="geometry" />
        </mxCell>
        <mxCell id="1CWe-sbZiBjtFl2tvP84-23" value="0::" style="shape=offPageConnector;whiteSpace=wrap;html=1;" vertex="1" parent="1CWe-sbZiBjtFl2tvP84-22">
          <mxGeometry width="20" height="20" as="geometry" />
        </mxCell>
        <mxCell id="1CWe-sbZiBjtFl2tvP84-24" style="edgeStyle=orthogonalEdgeStyle;rounded=0;orthogonalLoop=1;jettySize=auto;html=1;exitX=0;exitY=0;exitDx=0;exitDy=0;entryX=0.75;entryY=0;entryDx=0;entryDy=0;startArrow=baseDash;startFill=0;" edge="1" parent="1CWe-sbZiBjtFl2tvP84-22">
          <mxGeometry relative="1" as="geometry">
            <mxPoint x="15" as="targetPoint" />
            <Array as="points" />
            <mxPoint as="sourcePoint" />
          </mxGeometry>
        </mxCell>
      </root>
    </mxGraphModel>
  </diagram>
</mxfile>
